<svg id="Group_2" data-name="Group 2" xmlns="http://www.w3.org/2000/svg" width="73.9" height="65.801" viewBox="0 0 73.9 65.801">
  <path id="XMLID_16_" d="M27.5,65.8,32.31,46.483H62.427L73.9,0H34.5C24.3.169,14.426,8.014,11.811,18.053h0v.253h0L7,37.625H7L2.193,56.859h0L0,65.8ZM14.679,39.481h0c1.687-6.665,8.6-12.232,15.185-12.232v-7.93A22.965,22.965,0,0,0,18.9,22.271l.506-2.025c1.687-6.664,8.6-12.232,15.185-12.232H63.524l-2.784,11.3H29.948v7.93H58.884L56.1,38.553H25.139a22.965,22.965,0,0,0-10.967,2.953Zm9.364,7.086-2.784,11.3H10.208C12.148,51.966,18.138,47.158,24.043,46.567Z" fill="#fff"/>
  <path id="XMLID_15_" d="M36.448,55.2H28.265L27,60.177h8.267Z" transform="translate(-4.223 -8.633)" opacity="0.2"/>
</svg>
